<svg xmlns="http://www.w3.org/2000/svg" width="22.432" height="22.432" viewBox="0 0 22.432 22.432">
  <g id="insta-icon" transform="translate(-337.237 -12688.169)">
    <g id="Group_457" data-name="Group 457">
      <path id="Path_1461" data-name="Path 1461" d="M354.392,12692.174a1.315,1.315,0,1,0,1.315,1.315A1.315,1.315,0,0,0,354.392,12692.174Z" fill="#0c1d46"/>
    </g>
    <g id="Group_458" data-name="Group 458">
      <path id="Path_1462" data-name="Path 1462" d="M348.545,12693.861a5.524,5.524,0,1,0,5.525,5.523A5.53,5.53,0,0,0,348.545,12693.861Zm0,9.063a3.539,3.539,0,1,1,3.539-3.539A3.543,3.543,0,0,1,348.545,12702.924Z" fill="#0c1d46"/>
    </g>
    <g id="Group_459" data-name="Group 459">
      <path id="Path_1463" data-name="Path 1463" d="M352.931,12710.6h-8.956a6.745,6.745,0,0,1-6.738-6.737v-8.956a6.746,6.746,0,0,1,6.738-6.738h8.956a6.746,6.746,0,0,1,6.738,6.738v8.956A6.745,6.745,0,0,1,352.931,12710.6Zm-8.956-20.321a4.633,4.633,0,0,0-4.628,4.628v8.956a4.633,4.633,0,0,0,4.628,4.628h8.956a4.633,4.633,0,0,0,4.628-4.628v-8.956a4.633,4.633,0,0,0-4.628-4.628Z" fill="#0c1d46"/>
    </g>
  </g>
</svg>
