<svg xmlns="http://www.w3.org/2000/svg" width="17.859" height="17.818" viewBox="0 0 17.859 17.818">
  <g id="linkedIn-icon" transform="translate(-263.842 -12688.423)">
    <g id="Group_364" data-name="Group 364">
      <path id="Path_941" data-name="Path 941" d="M264.136,12694.338h3.706v11.9h-3.706Zm1.854-5.915a2.145,2.145,0,1,1-2.148,2.144,2.145,2.145,0,0,1,2.148-2.144" fill="#0c1d46"/>
    </g>
    <g id="Group_365" data-name="Group 365">
      <path id="Path_942" data-name="Path 942" d="M270.163,12694.338h3.549v1.628h.049a3.891,3.891,0,0,1,3.5-1.923c3.746,0,4.436,2.464,4.436,5.669v6.529H278v-5.787c0-1.382-.027-3.157-1.923-3.157-1.926,0-2.22,1.5-2.22,3.056v5.889h-3.7Z" fill="#0c1d46"/>
    </g>
  </g>
</svg>
