<svg xmlns="http://www.w3.org/2000/svg" width="227.479" height="89.673" viewBox="0 0 227.479 89.673">
  <g id="logo2" transform="translate(-251.62 -12190.421)">
    <path id="Path_971" data-name="Path 971" d="M416.675,12280.093h8.275v-40.443l-8.275,4.773Z" fill="#0c1d46"/>
    <path id="Path_972" data-name="Path 972" d="M397.286,12249.339h-9.112a11.115,11.115,0,0,0-11.114,11.115v8.523a11.114,11.114,0,0,0,11.114,11.115H408.4v-7.318H387.558a2.223,2.223,0,0,1-2.223-2.224v-2.4H408.4v-7.694a11.115,11.115,0,0,0-11.114-11.115Zm2.839,13.179h-14.79v-3.637a2.223,2.223,0,0,1,2.223-2.224H397.9a2.223,2.223,0,0,1,2.222,2.224Z" fill="#0c1d46"/>
    <path id="Path_973" data-name="Path 973" d="M467.985,12249.342h-6.9l-4.654,2.685a11.066,11.066,0,0,0-7.24-2.686H433.242v30.751h8.274v-23.433H449.8a2.229,2.229,0,0,1,2.223,2.223v21.21h8.28v-19.638a11.074,11.074,0,0,0-.665-3.795H468.6a2.223,2.223,0,0,1,2.223,2.223v21.21H479.1v-19.637a11.114,11.114,0,0,0-11.114-11.114Z" fill="#0c1d46"/>
    <path id="Path_974" data-name="Path 974" d="M458.078,12227.99v-11.853a2.222,2.222,0,0,1,2.223-2.222h10.523v-7.325h-9.906a11.114,11.114,0,0,0-11.114,11.114v10.285h-6.065a2.23,2.23,0,0,1-2.222-2.224v-30.9l-8.276,4.773v24.556a11.12,11.12,0,0,0,.664,3.789H424.95v-21.393H408.968a11.115,11.115,0,0,0-11.115,11.114v10.278h-17.12l-4.228,7.324h55.957l4.651-2.687a11.068,11.068,0,0,0,7.243,2.688H479.1v-7.318Zm-51.946-.006v-11.847a2.222,2.222,0,0,1,2.222-2.222h8.318v14.068h-10.54Z" fill="#0c1d46"/>
    <path id="Path_975" data-name="Path 975" d="M329.408,12190.421v17.92l-15.587,8.96v-17.92Z" fill="#0c1d46"/>
    <path id="Path_976" data-name="Path 976" d="M329.334,12244.178l-15.513,9.037v17.919l-15.587,8.96-15.513-8.96,15.513-8.96v-17.994l-15.513-8.962v0l-15.587,8.958v-17.917l15.587-8.963,15.513,8.96v0l15.587-8.963v17.92Z" fill="#0c1d46"/>
    <path id="Path_977" data-name="Path 977" d="M360.511,12244.178v0h0Z" fill="#0c1d46"/>
    <path id="Path_978" data-name="Path 978" d="M251.62,12271.133l15.512-8.96,15.588,8.96-15.588,8.96Z" fill="#0c1d46"/>
    <path id="Path_979" data-name="Path 979" d="M360.511,12226.258v17.92l0,0-15.587,9.035-15.587-9.037,15.587-8.96v-17.92Z" fill="#0c1d46"/>
  </g>
</svg>
