<svg xmlns="http://www.w3.org/2000/svg" width="47.204" height="47.553" viewBox="0 0 47.204 47.553">
  <path id="phone-icon" d="M1654.872,12543.5a1.561,1.561,0,0,0-1.7-.037c-2.5,1.515-3.742,6.872-7.5,4.993-5.679-2.835-11.626-8.686-14.119-14.232-1.724-3.835,3.546-5.047,5.1-7.522a1.56,1.56,0,0,0-.013-1.7c-.365-.522-6.534-8.338-7.536-9.355-.7-.737-1.6-2-3.125-1.376a33.4,33.4,0,0,0-3.011,2.579c-7.3,5.752-4.863,14.528.853,23.135a62.489,62.489,0,0,0,15.44,15.781c8.75,5.964,17.618,8.878,23.581,1.525a33.163,33.163,0,0,0,2.621-2.974c.642-1.52-.6-2.435-1.332-3.146C1663.117,12550.152,1655.389,12543.873,1654.872,12543.5Z" transform="translate(-1618.425 -12514.101)" fill="#0c1d46" fill-rule="evenodd"/>
</svg>
