<svg xmlns="http://www.w3.org/2000/svg" width="20.936" height="14.656" viewBox="0 0 20.936 14.656">
  <g id="youtube-icon" transform="translate(-565.03 -12692.057)">
    <path id="Path_944" data-name="Path 944" d="M585.966,12696.651a4.6,4.6,0,0,0-4.6-4.595H569.624a4.594,4.594,0,0,0-4.594,4.595v5.467a4.594,4.594,0,0,0,4.594,4.595h11.747a4.594,4.594,0,0,0,4.6-4.595Zm-6.909,3.144-5.268,2.606c-.207.111-.908-.038-.908-.273v-5.35c0-.237.707-.388.914-.27l5.042,2.744C579.049,12699.373,579.271,12699.679,579.057,12699.795Z" fill="#0c1d46"/>
  </g>
</svg>
