<svg xmlns="http://www.w3.org/2000/svg" width="141.273" height="136.204" viewBox="0 0 141.273 136.204">
  <g id="mothabron1" transform="translate(-1306.72 -9336.9)">
    <g id="Group_435" data-name="Group 435">
      <g id="Group_434" data-name="Group 434">
        <path id="Path_1176" data-name="Path 1176" d="M1306.72,9422.911l.042,9.268,70.592,40.926v-9.291l-57.941-33.553Z" fill="#2c2f62"/>
        <path id="Path_1177" data-name="Path 1177" d="M1377.353,9463.813v9.291l70.592-40.926.048-9.268-12.693,7.35h-.006Z" fill="#2e9fda"/>
        <path id="Path_1178" data-name="Path 1178" d="M1306.72,9422.911l12.693,7.35,57.941,33.553,57.941-33.553h.006l12.693-7.35-70.64-40.609Z" fill="#0070c7"/>
      </g>
    </g>
    <g id="Group_437" data-name="Group 437">
      <g id="Group_436" data-name="Group 436">
        <path id="Path_1179" data-name="Path 1179" d="M1306.72,9401.29l.042,9.268,70.592,40.926v-9.291l-57.941-33.553Z" fill="#2c2f62"/>
        <path id="Path_1180" data-name="Path 1180" d="M1377.353,9442.192v9.291l70.592-40.926.048-9.268-12.693,7.35h-.006Z" fill="#2e9fda"/>
        <path id="Path_1181" data-name="Path 1181" d="M1306.72,9401.29l12.693,7.35,57.941,33.553,57.941-33.553h.006l12.693-7.35-70.64-40.609Z" fill="#0070c7"/>
      </g>
    </g>
    <g id="Group_439" data-name="Group 439">
      <g id="Group_438" data-name="Group 438">
        <path id="Path_1182" data-name="Path 1182" d="M1306.72,9377.51l.042,9.268,70.592,40.926v-9.291l-57.941-33.553Z" fill="#2c2f62"/>
        <path id="Path_1183" data-name="Path 1183" d="M1377.353,9418.412v9.291l70.592-40.926.048-9.268-12.693,7.35h-.006Z" fill="#2e9fda"/>
        <path id="Path_1184" data-name="Path 1184" d="M1306.72,9377.51l12.693,7.35,57.941,33.553,57.941-33.553h.006l12.693-7.35-70.64-40.609Z" fill="#0070c7"/>
      </g>
    </g>
  </g>
</svg>
