<svg xmlns="http://www.w3.org/2000/svg" width="157.92" height="199.819" viewBox="0 0 157.92 199.819">
  <g id="mothabron4" transform="translate(-375.996 -9292.096)">
    <g id="Group_428" data-name="Group 428">
      <path id="Path_1150" data-name="Path 1150" d="M529.939,9329.994l3.977,6.889-10.923,6.334-3.979-6.891Z" fill="#0070c7"/>
      <path id="Path_1151" data-name="Path 1151" d="M533.916,9336.883l-.233,75.736-3.995,2.267-3.464,2.019-1.86,1.082-1.579.919.023-8,.185-67.687Z" fill="#0070c7"/>
      <path id="Path_1152" data-name="Path 1152" d="M529.939,9329.994l-10.926,6.332-58.9-33.928-6.935-4q2.072-1.2,4.14-2.39l2.8-1.615,3.978-2.3Z" fill="#2e9fda"/>
      <path id="Path_1153" data-name="Path 1153" d="M519.013,9336.326l3.98,6.891-.185,67.688-.023,8v0l-3.995,2.327-65.664-38.029-3.959-6.857.014-31.5,6.163,10.678,4.728,2.731,6.161,3.563,6.184-3.544v-.037l.007-5.462.007-7.064-6.17-10.69-10.9-6.287-6.178,3.558.014-31.592q1.992-1.15,3.982-2.294l6.935,4Z" fill="#00349a"/>
      <path id="Path_1154" data-name="Path 1154" d="M472.424,9352.773l-.007,5.461-6.184,3.582-6.161-3.563-4.727-2.731,4.732-2.739,6.175-3.574Z" fill="#2e9fda"/>
      <path id="Path_1155" data-name="Path 1155" d="M460.088,9338.533l6.164,10.675-6.175,3.574-4.732,2.739-6.164-10.678Z" fill="#0070c7"/>
    </g>
    <g id="Group_429" data-name="Group 429">
      <path id="Path_1156" data-name="Path 1156" d="M477.149,9442.024q3.083,5.336,6.161,10.672L472.4,9459q-3.083-5.336-6.164-10.677Z" fill="#0070c7"/>
      <path id="Path_1157" data-name="Path 1157" d="M483.31,9452.7l0,12.551-8.532,4.928q-1.188.687-2.378,1.371V9459Z" fill="#0070c7"/>
      <path id="Path_1158" data-name="Path 1158" d="M477.149,9442.024l-10.914,6.294-6.1-3.519-4.75-2.741,4.748-2.736,6.152-3.565Z" fill="#2e9fda"/>
      <path id="Path_1159" data-name="Path 1159" d="M472.4,9459v12.55q-3.08,1.78-6.157,3.552l-6.1-3.523-4.762-2.753q-3.075-5.331-6.154-10.663l.016,23.435.007,8.042-3.945,2.28-65.135-37.72-3.943-6.829-.232-75.5c.6-.341,1.2-.685,1.791-1.024q1.094-.625,2.191-1.252l6.962,4.011,58.29,33.578,3.961,6.864.025,31.568q3.084-1.775,6.164-3.555h0l4.751,2.742,6.1,3.52Q469.318,9453.659,472.4,9459Z" fill="#00349a"/>
      <path id="Path_1160" data-name="Path 1160" d="M460.144,9471.574l0,11.77-3.947,2.274q-3.477,2.007-6.951,4.017l-.007-8.042-.016-23.435q3.076,5.333,6.154,10.663Z" fill="#0070c7"/>
      <path id="Path_1161" data-name="Path 1161" d="M460.117,9407.76l.014,31.556q-2.376,1.374-4.749,2.742h0l-.014-.009-6.15,3.563-.025-31.568Z" fill="#0070c7"/>
      <path id="Path_1162" data-name="Path 1162" d="M456.153,9400.9l3.963,6.86-10.926,6.284-3.961-6.863Z" fill="#0070c7"/>
      <path id="Path_1163" data-name="Path 1163" d="M456.153,9400.9l-10.923,6.28L386.94,9373.6l-6.962-4.011q2.157-1.233,4.313-2.47l2.628-1.5q1.612-.946,3.227-1.9c.235-.135.467-.273.7-.412Z" fill="#2e9fda"/>
    </g>
  </g>
</svg>
