<svg xmlns="http://www.w3.org/2000/svg" width="101.054" height="183.09" viewBox="0 0 101.054 183.09">
  <g id="mothabron2" transform="translate(-1021.693 -9304.768)">
    <g id="Group_431" data-name="Group 431">
      <path id="Path_1164" data-name="Path 1164" d="M1122.586,9418.928q-7.127,4.059-14.242,8.134v-.02Q1115.464,9422.983,1122.586,9418.928Z" fill="#2e9fda"/>
      <path id="Path_1165" data-name="Path 1165" d="M1122.747,9366.756l-14.286,8.255q-10.443-18.089-20.89-36.179l14.311-8.214Q1112.311,9348.69,1122.747,9366.756Z" fill="#2e9fda"/>
      <path id="Path_1166" data-name="Path 1166" d="M1101.882,9330.618l-14.311,8.214-44.952-25.757q7.031-4.157,14.056-8.308Z" fill="#00349a"/>
      <path id="Path_1167" data-name="Path 1167" d="M1122.747,9366.756l-.161,52.172q-7.121,4.059-14.242,8.114l.117-52.031Z" fill="#2e9fda"/>
      <path id="Path_1168" data-name="Path 1168" d="M1101.7,9430.827l-.04,22.661-4.018,2.344-10.184,5.935.012-11.842v0l.005-4.667,0-6.161C1092.218,9436.391,1096.961,9433.529,1101.7,9430.827Z" fill="#2e9fda"/>
    </g>
    <g id="Group_432" data-name="Group 432">
      <path id="Path_1169" data-name="Path 1169" d="M1087.454,9466.441v8.379l-.012.009-44.823-26.124-.024-8.367,11.037,6.422Z" fill="#0070c7"/>
      <path id="Path_1170" data-name="Path 1170" d="M1101.652,9458.159l-.024,8.383-14.173,8.278v-8.379l3.169-1.848h0Z" fill="#2e9fda"/>
      <path id="Path_1171" data-name="Path 1171" d="M1108.461,9375.011l-.117,52.031q-3.321,1.89-6.644,3.785l-7.111,4.131-.426.25-6.684,3.885,0,6.161-.005,4.667v0l-.012,11.842-30.654-17.83-10.195-5.927-4.022-2.339-.041-22.642q-10.345-17.919-20.692-35.845l-.161-52.034q10.334-6.113,20.672-12.221l.254.146,44.952,25.757Q1098.014,9356.921,1108.461,9375.011Z" fill="#0070c7"/>
      <path id="Path_1172" data-name="Path 1172" d="M1101.652,9458.159l-11.025,6.435h0l-3.169,1.848-33.823-19.682-11.037-6.422,4.014-2.328,10.2,5.928,30.654,17.829,10.183-5.935Z" fill="#00349a"/>
      <path id="Path_1173" data-name="Path 1173" d="M1087.454,9479.47v8.38l-.012.008-44.823-26.124-.024-8.367,11.037,6.422Z" fill="#0070c7"/>
      <path id="Path_1174" data-name="Path 1174" d="M1101.652,9471.188l-.024,8.383-14.173,8.279v-8.38l3.169-1.848h0Z" fill="#2e9fda"/>
      <path id="Path_1175" data-name="Path 1175" d="M1101.652,9471.188l-11.025,6.435h0l-3.169,1.848-33.823-19.682-11.037-6.422,4.014-2.327,10.2,5.927,30.654,17.829,10.183-5.935Z" fill="#00349a"/>
    </g>
  </g>
</svg>
