<svg xmlns="http://www.w3.org/2000/svg" width="170.313" height="179.791" viewBox="0 0 170.313 179.791">
  <g id="mothabron3" transform="translate(-688.739 -9302.491)">
    <path id="Path_1141" data-name="Path 1141" d="M694.308,9353.916l-5.57,6.924,9.072,5.236,5.569-6.924,89.068-51.425,5.559.5-9.069-5.237-5.559-.5Z" fill="#00349a"/>
    <path id="Path_1142" data-name="Path 1142" d="M688.739,9360.84v66.777l9.072,5.236v-66.776Z" fill="#0070c7"/>
    <path id="Path_1143" data-name="Path 1143" d="M697.81,9366.077v66.776l5.569.5,89.068-51.423,5.562-6.921v-66.78l-5.562-.5-89.068,51.426Z" fill="#0070c7"/>
    <path id="Path_1144" data-name="Path 1144" d="M790.466,9379.614l4.548-5.663v-62.986l-1.89-.171-87.764,50.672-4.558,5.665v62.984l1.9.17Z" fill="#2e9fda"/>
    <path id="Path_1145" data-name="Path 1145" d="M758.852,9482.281l8.784-1.359L856.7,9429.5l2.348-5.066V9413.96l-2.348,5.063-89.068,51.426-8.784,1.358Z" fill="#0070c7"/>
    <path id="Path_1146" data-name="Path 1146" d="M701.022,9448.893l57.831,33.39V9471.81l-57.831-33.391Z" fill="#0070c7"/>
    <path id="Path_1147" data-name="Path 1147" d="M701.022,9438.419l57.831,33.39,8.784-1.361,89.068-51.423,2.348-5.066-57.833-33.39-8.771,1.356-89.068,51.426Z" fill="#2e9fda"/>
    <path id="Path_1148" data-name="Path 1148" d="M749.2,9457.354l87.764-50.669.8-1.726-37.127-21.271-7.176,1.111-87.764,50.669-.8,1.73,37.122,21.27Z" fill="#00349a"/>
    <path id="Path_1149" data-name="Path 1149" d="M795.756,9450.486l31.335-18.091-13.795-7.965-31.332,18.093Z" fill="#00349a"/>
  </g>
</svg>
