<svg xmlns="http://www.w3.org/2000/svg" width="252.21" height="99.423" viewBox="0 0 252.21 99.423">
  <g id="colored-logo1" transform="translate(-3442.162 -4929.217)">
    <path id="Path_1403" data-name="Path 1403" d="M3625.162,5028.639h9.175V4983.8l-9.175,5.292Z"/>
    <path id="Path_1404" data-name="Path 1404" d="M3603.664,4994.542h-10.1a12.324,12.324,0,0,0-12.323,12.323v9.452a12.324,12.324,0,0,0,12.323,12.323h22.425v-8.114h-23.108a2.465,2.465,0,0,1-2.465-2.465V5015.4h25.573v-8.531A12.324,12.324,0,0,0,3603.664,4994.542Zm3.149,14.612h-16.4v-4.032a2.465,2.465,0,0,1,2.465-2.466h11.469a2.466,2.466,0,0,1,2.465,2.466Z"/>
    <path id="Path_1405" data-name="Path 1405" d="M3682.049,4994.545H3674.4l-5.16,2.977a12.272,12.272,0,0,0-8.027-2.977h-17.686v34.1h9.175v-25.98h9.189a2.472,2.472,0,0,1,2.464,2.465v23.516h9.181v-21.772a12.3,12.3,0,0,0-.738-4.208h9.933a2.465,2.465,0,0,1,2.465,2.464v23.516h9.174v-21.772A12.323,12.323,0,0,0,3682.049,4994.545Z"/>
    <path id="Path_1406" data-name="Path 1406" d="M3671.066,4970.872v-13.14a2.464,2.464,0,0,1,2.464-2.464H3685.2v-8.121h-10.984a12.322,12.322,0,0,0-12.322,12.322v11.4h-6.724a2.472,2.472,0,0,1-2.464-2.465v-34.26l-9.175,5.293v27.224a12.321,12.321,0,0,0,.736,4.2h-9.928v-23.718h-17.721a12.322,12.322,0,0,0-12.322,12.322v11.4h-18.982l-4.688,8.121h62.041l5.157-2.98a12.275,12.275,0,0,0,8.03,2.98h38.52v-8.115Zm-45.908-.006h-11.686v-13.134a2.464,2.464,0,0,1,2.464-2.464h9.222Z"/>
    <path id="Path_1407" data-name="Path 1407" d="M3511.125,4959.02l17.283-9.934v-19.868l-17.283,9.934v19.868l-17.283,9.934h0l-17.2-9.934h0l-17.283,9.934v19.868l17.283-9.934h0l17.2,9.934v19.951h0l-17.2,9.934,17.2,9.934,17.282-9.934h0v-19.868l17.2-10.018-17.2-9.934Z"/>
    <path id="Path_1408" data-name="Path 1408" d="M3545.607,4978.887l-17.282,9.934,17.282,10.018,17.282-10.018h0v-19.868l-17.283-9.934Z"/>
    <path id="Path_1409" data-name="Path 1409" d="M3442.162,5018.706l17.2,9.934,17.282-9.934-17.282-9.934Z"/>
  </g>
</svg>
