<svg xmlns="http://www.w3.org/2000/svg" width="345.864" height="171.827" viewBox="0 0 345.864 171.827">
  <g id="colored-logo2" transform="translate(-2927.738 -4893.015)">
    <path id="Path_1381" data-name="Path 1381" d="M2947.057,5064.842H3273.6V4912.334l-19.319-19.319H2927.738v152.508Z" fill="#0c1d46"/>
    <g id="Group_429" data-name="Group 429">
      <path id="Path_1382" data-name="Path 1382" d="M3157.565,5028.639h9.175V4983.8l-9.175,5.292Z" fill="#fff"/>
      <path id="Path_1383" data-name="Path 1383" d="M3136.067,4994.542h-10.1a12.323,12.323,0,0,0-12.323,12.323v9.452a12.323,12.323,0,0,0,12.323,12.323h22.425v-8.114h-23.108a2.465,2.465,0,0,1-2.465-2.465V5015.4h25.573v-8.531A12.323,12.323,0,0,0,3136.067,4994.542Zm3.149,14.612h-16.4v-4.032a2.464,2.464,0,0,1,2.465-2.465h11.469a2.465,2.465,0,0,1,2.465,2.465Z" fill="#fff"/>
      <path id="Path_1384" data-name="Path 1384" d="M3214.453,4994.545H3206.8l-5.16,2.977a12.27,12.27,0,0,0-8.027-2.977h-17.685v34.1h9.174v-25.98h9.189a2.471,2.471,0,0,1,2.464,2.465v23.516h9.181v-21.772a12.3,12.3,0,0,0-.738-4.208h9.933a2.465,2.465,0,0,1,2.465,2.464v23.516h9.174v-21.772A12.323,12.323,0,0,0,3214.453,4994.545Z" fill="#fff"/>
      <path id="Path_1385" data-name="Path 1385" d="M3203.469,4970.872v-13.14a2.465,2.465,0,0,1,2.465-2.464H3217.6v-8.121h-10.983a12.323,12.323,0,0,0-12.323,12.322v11.4h-6.724a2.472,2.472,0,0,1-2.464-2.464v-34.261l-9.175,5.293v27.224a12.321,12.321,0,0,0,.736,4.2h-9.928v-23.718h-17.721a12.323,12.323,0,0,0-12.322,12.323v11.4h-18.982l-4.688,8.121h62.041l5.157-2.98a12.27,12.27,0,0,0,8.03,2.98h38.52v-8.115Zm-45.908-.006h-11.686v-13.134a2.465,2.465,0,0,1,2.464-2.464h9.222Z" fill="#fff"/>
      <path id="Path_1386" data-name="Path 1386" d="M3043.529,4959.02l17.282-9.934v-19.868l-17.282,9.934v19.868l-17.283,9.934h0l-17.2-9.934h0l-17.283,9.934v19.868l17.283-9.934h0l17.2,9.934h0v19.951h0l-17.2,9.934,17.2,9.934,17.282-9.934h0v-19.868l17.2-10.018-17.2-9.934Z" fill="#fff"/>
      <path id="Path_1387" data-name="Path 1387" d="M3078.01,4978.887l-17.283,9.934,17.283,10.018,17.282-10.018h0v-19.869l-17.283-9.934Z" fill="#fff"/>
      <path id="Path_1388" data-name="Path 1388" d="M2974.565,5018.706l17.2,9.934,17.283-9.934-17.283-9.934Z" fill="#fff"/>
    </g>
  </g>
</svg>
