<svg xmlns="http://www.w3.org/2000/svg" width="252.21" height="99.423" viewBox="0 0 252.21 99.423">
  <g id="colored-logo3" transform="translate(-2506.968 -4929.217)">
    <g id="Group_431" data-name="Group 431">
      <path id="Path_1389" data-name="Path 1389" d="M2689.968,5028.639h9.175V4983.8l-9.175,5.292Z" fill="#0c1d46"/>
      <path id="Path_1390" data-name="Path 1390" d="M2668.47,4994.542h-10.1a12.324,12.324,0,0,0-12.323,12.323v9.452a12.324,12.324,0,0,0,12.323,12.323h22.425v-8.114h-23.108a2.465,2.465,0,0,1-2.465-2.465V5015.4h25.573v-8.531a12.323,12.323,0,0,0-12.323-12.323m3.149,14.612h-16.4v-4.032a2.465,2.465,0,0,1,2.465-2.465h11.469a2.464,2.464,0,0,1,2.465,2.465Z" fill="#0c1d46"/>
      <path id="Path_1391" data-name="Path 1391" d="M2746.856,4994.545h-7.648l-5.16,2.977a12.27,12.27,0,0,0-8.027-2.977h-17.685v34.1h9.174v-25.98h9.189a2.471,2.471,0,0,1,2.464,2.465v23.516h9.181v-21.772a12.275,12.275,0,0,0-.738-4.208h9.933a2.465,2.465,0,0,1,2.465,2.464v23.516h9.174v-21.772a12.322,12.322,0,0,0-12.322-12.323" fill="#0c1d46"/>
      <path id="Path_1392" data-name="Path 1392" d="M2735.872,4970.872v-13.14a2.465,2.465,0,0,1,2.465-2.464H2750v-8.121h-10.983a12.323,12.323,0,0,0-12.323,12.322v11.4h-6.724a2.471,2.471,0,0,1-2.464-2.464v-34.261l-9.175,5.293v27.224a12.315,12.315,0,0,0,.736,4.2h-9.928v-23.718h-17.72a12.323,12.323,0,0,0-12.323,12.323v11.4h-18.982l-4.688,8.121h62.041l5.157-2.98a12.271,12.271,0,0,0,8.03,2.98h38.52v-8.115Zm-57.594-.006v-13.134a2.465,2.465,0,0,1,2.464-2.464h9.223v15.6h-11.687Z" fill="#0c1d46"/>
      <path id="Path_1393" data-name="Path 1393" d="M2558.649,5008.772v-19.952l17.282,10.017v19.869Z" fill="#f16845"/>
      <path id="Path_1394" data-name="Path 1394" d="M2558.649,4968.953l17.282-9.934v19.868l-17.282,9.934Z" fill="#6e43b5"/>
      <path id="Path_1395" data-name="Path 1395" d="M2593.214,4949.085l-17.283,9.934v-19.868l17.283-9.934Z" fill="#6e43b5"/>
      <path id="Path_1396" data-name="Path 1396" d="M2524.167,4968.953l17.282-9.934v19.868l-17.282,9.934Z" fill="#6e43b5"/>
      <path id="Path_1397" data-name="Path 1397" d="M2541.45,4978.887v-19.869l17.2,9.935v19.868Z" fill="#c18fd6"/>
      <path id="Path_1398" data-name="Path 1398" d="M2610.414,4978.887v-19.869l17.283,9.935v19.868Z" fill="#0070c7"/>
      <path id="Path_1399" data-name="Path 1399" d="M2506.968,5018.706l17.2-9.934,17.283,9.934-17.283,9.934Z" fill="#f7a573"/>
      <path id="Path_1400" data-name="Path 1400" d="M2541.45,5018.706l17.2-9.934,17.282,9.934-17.282,9.934Z" fill="#f7a573"/>
      <path id="Path_1401" data-name="Path 1401" d="M2558.649,4988.821l17.282-9.934,17.2,9.934-17.2,10.018Z" fill="#2e9fda"/>
      <path id="Path_1402" data-name="Path 1402" d="M2593.131,4988.821l17.283-9.934,17.283,9.934-17.283,10.018Z" fill="#2e9fda"/>
    </g>
  </g>
</svg>
