<svg xmlns="http://www.w3.org/2000/svg" width="1023.617" height="754.109" viewBox="0 0 1023.617 754.109">
  <g id="logo-details" transform="translate(-2665.786 -3499.706)">
    <g id="logo-big">
      <path id="Path_1410" data-name="Path 1410" d="M3440.115,4079.138h33.052V3917.621l-33.052,19.069Z" fill="#0c1d46"/>
      <path id="Path_1411" data-name="Path 1411" d="M3362.681,3956.321h-36.388a44.4,44.4,0,0,0-44.392,44.393v34.043a44.39,44.39,0,0,0,44.392,44.392h80.769v-29.232h-83.235a8.875,8.875,0,0,1-8.874-8.874v-9.6h92.109v-30.729a44.388,44.388,0,0,0-44.381-44.393m11.34,52.628h-59.068v-14.522a8.876,8.876,0,0,1,8.874-8.874h41.309a8.876,8.876,0,0,1,8.874,8.874v14.522Z" fill="#0c1d46"/>
      <path id="Path_1412" data-name="Path 1412" d="M3645.022,3956.332h-27.547l-18.585,10.724a44.249,44.249,0,0,0-28.912-10.724h-63.7v122.806h33.041v-93.585h33.107a8.9,8.9,0,0,1,8.874,8.874v84.711h33.063v-78.424a44.324,44.324,0,0,0-2.654-15.161h35.783a8.877,8.877,0,0,1,8.874,8.874v84.7H3689.4V4000.7a44.39,44.39,0,0,0-44.392-44.393" fill="#0c1d46"/>
      <path id="Path_1413" data-name="Path 1413" d="M3605.463,3871.06v-47.332a8.875,8.875,0,0,1,8.874-8.874h42.025V3785.6H3616.8a44.38,44.38,0,0,0-44.381,44.393v41.078H3548.2a8.9,8.9,0,0,1-8.874-8.874V3738.786l-33.052,19.069v98.066a44.245,44.245,0,0,0,2.653,15.139h-35.761v-85.438h-63.825A44.387,44.387,0,0,0,3364.949,3830v41.045h-68.372l-16.889,29.253h223.47l18.574-10.734a44.208,44.208,0,0,0,28.923,10.734H3689.4v-29.231h-83.951Zm-207.451-.022v-47.31a8.876,8.876,0,0,1,8.874-8.874H3440.1v56.184Z" fill="#0c1d46"/>
      <path id="Path_1414" data-name="Path 1414" d="M2967.1,4007.573v-71.862l62.251,36.08v71.565Z" fill="#f16845"/>
      <path id="Path_1415" data-name="Path 1415" d="M2967.1,3864.146l62.251-35.782v71.565l-62.251,35.782Z" fill="#6e43b5"/>
      <path id="Path_1416" data-name="Path 1416" d="M3091.6,3792.581l-62.25,35.782V3756.8l62.25-35.783Z" fill="#6e43b5"/>
      <path id="Path_1417" data-name="Path 1417" d="M2842.9,3864.146l62.251-35.782v71.565l-62.251,35.782Z" fill="#6e43b5"/>
      <path id="Path_1418" data-name="Path 1418" d="M2905.149,3899.928v-71.565l61.953,35.782v71.565Z" fill="#c18fd6"/>
      <path id="Path_1419" data-name="Path 1419" d="M3153.557,3899.928v-71.565l62.251,35.782v71.565Z" fill="#0070c7"/>
      <path id="Path_1420" data-name="Path 1420" d="M2780.945,4043.355l61.953-35.782,62.251,35.782-62.251,35.783Z" fill="#f7a573"/>
      <path id="Path_1421" data-name="Path 1421" d="M2905.149,4043.355l61.953-35.782,62.251,35.782-62.251,35.783Z" fill="#f7a573"/>
      <path id="Path_1422" data-name="Path 1422" d="M2967.1,3935.711l62.251-35.782,61.953,35.782-61.953,36.08Z" fill="#2e9fda"/>
      <path id="Path_1423" data-name="Path 1423" d="M3091.306,3935.711l62.25-35.782,62.251,35.782-62.251,36.08Z" fill="#2e9fda"/>
    </g>
    <line id="Line_152" data-name="Line 152" y2="287.857" transform="translate(3215.807 3965.957)" fill="none" stroke="#2e9fda" stroke-miterlimit="10" stroke-width="0.279"/>
    <line id="Line_153" data-name="Line 153" y2="210.626" transform="translate(2967.102 3606.139)" fill="none" stroke="#2e9fda" stroke-miterlimit="10" stroke-width="0.279"/>
    <line id="Line_154" data-name="Line 154" y2="186.309" transform="translate(2780.945 4067.506)" fill="none" stroke="#2e9fda" stroke-miterlimit="10" stroke-width="0.279"/>
    <line id="Line_155" data-name="Line 155" y2="117.753" transform="translate(2842.898 3724.083)" fill="none" stroke="#2e9fda" stroke-miterlimit="10" stroke-width="0.279"/>
    <line id="Line_156" data-name="Line 156" y2="339.831" transform="translate(3215.808 3499.706)" fill="none" stroke="#2e9fda" stroke-miterlimit="10" stroke-width="0.279"/>
    <line id="Line_157" data-name="Line 157" y2="220.563" transform="translate(3153.557 3592.421)" fill="none" stroke="#2e9fda" stroke-miterlimit="10" stroke-width="0.279"/>
    <line id="Line_158" data-name="Line 158" x1="148.144" transform="translate(2665.786 3900.302)" fill="none" stroke="#2e9fda" stroke-miterlimit="10" stroke-width="0.22"/>
    <line id="Line_159" data-name="Line 159" x1="148.144" transform="translate(2665.786 4007.573)" fill="none" stroke="#2e9fda" stroke-miterlimit="10" stroke-width="0.22"/>
  </g>
</svg>
